<svg width="399" height="356" viewBox="0 0 399 356" fill="none" xmlns="http://www.w3.org/2000/svg">
<path fill-rule="evenodd" clip-rule="evenodd" d="M176.004 0.371654C213.745 3.69863 231.358 43.674 264.882 59.425C307.638 79.5131 382.571 63.294 397.131 104.264C411.742 145.375 336.456 169.184 318.068 209.081C301.997 243.953 326.32 289.45 298.629 317.995C269.7 347.816 220.278 353.755 176.004 355.525C130.093 357.36 79.6912 354.995 45.0896 328.13C11.3867 301.962 0.540938 258.633 0.00494391 218.875C-0.441697 185.746 29.491 160.607 42.4121 129.527C54.5673 100.288 49.5722 65.4894 73.3129 42.5373C99.4665 17.2524 137.536 -3.01947 176.004 0.371654Z" fill="#6AE3C6"/>
</svg>
